<svg width="130" height="129" viewBox="0 0 130 129" fill="none" xmlns="http://www.w3.org/2000/svg">
<rect width="130" height="129" fill="#1E1E1E"/>
<g id="main">
<rect width="1920" height="1080" transform="translate(-1343 -542)" fill="#101010"/>
<g id="Ellipse 5" filter="url(#filter0_f_0_1)">
<path d="M276.898 -136.742C308.384 -31.6743 64.2013 134.324 -268.5 234.026C-601.201 333.727 -1011.5 230.888 -1042.99 125.82C-1074.48 20.7519 -830.292 -145.247 -497.591 -244.948C-164.89 -344.65 245.412 -241.81 276.898 -136.742Z" fill="url(#paint0_linear_0_1)" fill-opacity="0.2"/>
</g>
<g id="Ellipse 3" filter="url(#filter1_d_0_1)">
<path d="M15 64C15 73.2895 17.5879 82.3953 22.4735 90.2963C27.3591 98.1973 34.3492 104.581 42.6599 108.732C50.9706 112.882 60.2733 114.635 69.5246 113.795C78.776 112.954 87.6103 109.553 95.0368 103.972C102.463 98.3918 108.188 90.8527 111.57 82.2005C114.951 73.5484 115.855 64.1252 114.181 54.9878C112.507 45.8505 108.32 37.3602 102.09 30.4692C95.8606 23.5782 87.8343 18.559 78.9116 15.9743L65 64L15 64Z" fill="url(#paint1_linear_0_1)"/>
</g>
<g id="&#235;&#140;&#128;&#236;&#139;&#160;&#234;&#179;&#160; &#236;&#181;&#156;&#234;&#179;&#160;&#236;&#157;&#152; &#236;&#134;&#140;&#237;&#148;&#132;&#237;&#138;&#184;&#236;&#155;&#168;&#236;&#150;&#180; &#235;&#143;&#153;&#236;&#149;&#132;&#235;&#166;&#172;" filter="url(#filter2_d_0_1)">
<path d="M-426.334 48.9052H-430.436L-420.932 14.9361H-416.83L-426.334 48.9052ZM-424.584 31.6197H-430.853L-429.912 28.2529H-423.642L-424.584 31.6197ZM-433.971 47.2312H-437.936L-429.08 15.5756H-425.115L-433.971 47.2312ZM-450.01 37.4693C-447.34 37.4693 -445.052 37.4129 -443.146 37.3C-441.239 37.1872 -439.26 36.9552 -437.209 36.6041L-437.835 40.0274C-439.928 40.391 -441.958 40.6418 -443.924 40.7797C-445.873 40.9051 -448.23 40.9741 -450.994 40.9866H-453.396L-452.412 37.4693H-450.01ZM-434.997 22.3469H-443.826L-448.53 39.1621H-452.885L-447.234 18.9613H-434.05L-434.997 22.3469ZM-390.199 39.8205H-394.554L-387.603 14.9737H-383.247L-390.199 39.8205ZM-391.576 48.3033H-415.931L-414.973 44.8801H-390.618L-391.576 48.3033ZM-411.093 46.6481H-415.468L-412.895 37.4505H-408.52L-411.093 46.6481ZM-401.775 20.1838C-402.403 22.4284 -403.385 24.5413 -404.72 26.5225C-406.056 28.5037 -407.688 30.2404 -409.615 31.7326C-411.53 33.2248 -413.646 34.3408 -415.962 35.0806L-417.332 31.8078C-415.291 31.1683 -413.453 30.2529 -411.817 29.0617C-410.166 27.8579 -408.8 26.4911 -407.721 24.9613C-406.639 23.419 -405.868 21.8265 -405.408 20.1838L-404.477 16.8546H-400.844L-401.775 20.1838ZM-400.916 20.1838C-401.361 21.7763 -401.469 23.2999 -401.237 24.7544C-401.003 26.1965 -400.405 27.4817 -399.445 28.6103C-398.468 29.7263 -397.157 30.579 -395.512 31.1683L-398.69 34.4975C-400.586 33.7828 -402.074 32.7232 -403.152 31.3188C-404.231 29.9144 -404.887 28.2592 -405.122 26.3532C-405.357 24.4472 -405.166 22.3908 -404.549 20.1838L-403.617 16.8546H-399.984L-400.916 20.1838ZM-353.816 21.4064H-376.531L-375.589 18.0396H-352.874L-353.816 21.4064ZM-354.176 44.5415H-386.324L-385.372 41.1371H-353.223L-354.176 44.5415ZM-369.709 42.8863H-373.986L-370.181 29.2874H-365.904L-369.709 42.8863ZM-351.041 21.3312C-351.599 23.3249 -352.099 25.0178 -352.54 26.4096C-352.978 27.789 -353.558 29.4191 -354.28 31.3C-354.998 33.1683 -355.872 35.1997 -356.903 37.3941L-361.171 36.9427C-360.166 34.8862 -359.305 32.9489 -358.588 31.1307C-357.867 29.2999 -357.289 27.6761 -356.854 26.2592C-356.418 24.8422 -355.939 23.1996 -355.416 21.3312L-354.496 18.0396H-350.121L-351.041 21.3312ZM-327.173 40.3847H-331.509L-329.488 33.1621H-325.152L-327.173 40.3847ZM-322.939 21.9707C-323.479 23.9018 -324.372 25.6949 -325.616 27.3501C-326.844 28.9927 -328.366 30.4097 -330.184 31.6009C-331.989 32.7922 -334.031 33.6699 -336.311 34.2342L-337.478 31.0743C-335.518 30.5852 -333.781 29.8893 -332.265 28.9865C-330.733 28.0711 -329.473 27.0115 -328.485 25.8077C-327.497 24.604 -326.814 23.3249 -326.435 21.9707L-326.204 21.1431H-322.708L-322.939 21.9707ZM-322.002 21.9707C-322.359 23.2497 -322.369 24.4723 -322.032 25.6385C-321.69 26.7921 -321.006 27.814 -319.979 28.7043C-318.939 29.5946 -317.571 30.2655 -315.874 30.7169L-318.772 33.952C-320.727 33.4003 -322.303 32.5414 -323.5 31.3752C-324.694 30.1965 -325.463 28.8046 -325.808 27.1996C-326.15 25.582 -326.059 23.8391 -325.537 21.9707L-325.305 21.1431H-321.77L-322.002 21.9707ZM-314.546 22.4785H-334.038L-333.096 19.1117H-313.604L-314.546 22.4785ZM-321.642 20.6164H-325.978L-324.473 15.2371H-320.137L-321.642 20.6164ZM-314.095 48.9993H-318.391L-308.862 14.9361H-304.565L-314.095 48.9993ZM-340.523 38.9552C-337.577 38.9427 -334.938 38.9114 -332.606 38.8612C-330.274 38.811 -327.77 38.7045 -325.095 38.5414C-322.402 38.3659 -319.832 38.1151 -317.384 37.7891L-317.915 40.8738C-320.473 41.3126 -323.092 41.6449 -325.772 41.8706C-328.449 42.0838 -330.948 42.2217 -333.271 42.2844C-335.576 42.3346 -338.129 42.3597 -340.928 42.3597L-340.523 38.9552ZM-275.145 21.4064H-297.859L-296.917 18.0396H-274.203L-275.145 21.4064ZM-275.504 44.5415H-307.652L-306.7 41.1371H-274.551L-275.504 44.5415ZM-291.037 42.8863H-295.314L-291.51 29.2874H-287.232L-291.037 42.8863ZM-272.37 21.3312C-272.927 23.3249 -273.427 25.0178 -273.868 26.4096C-274.306 27.789 -274.886 29.4191 -275.608 31.3C-276.326 33.1683 -277.2 35.1997 -278.231 37.3941L-282.499 36.9427C-281.494 34.8862 -280.633 32.9489 -279.916 31.1307C-279.195 29.2999 -278.617 27.6761 -278.182 26.2592C-277.746 24.8422 -277.267 23.1996 -276.745 21.3312L-275.824 18.0396H-271.449L-272.37 21.3312ZM-254.006 17.2684C-252.157 17.2684 -250.595 17.6195 -249.321 18.3217C-248.046 19.024 -247.167 20.002 -246.684 21.256C-246.198 22.4974 -246.178 23.9143 -246.624 25.5068C-247.069 27.0993 -247.884 28.5225 -249.068 29.7764C-250.249 31.0178 -251.673 31.9896 -253.341 32.6918C-254.996 33.394 -256.754 33.7451 -258.616 33.7451C-260.439 33.7451 -261.994 33.394 -263.282 32.6918C-264.57 31.9896 -265.464 31.0178 -265.963 29.7764C-266.445 28.5225 -266.464 27.0993 -266.018 25.5068C-265.573 23.9143 -264.76 22.4974 -263.579 21.256C-262.382 20.002 -260.943 19.024 -259.262 18.3217C-257.581 17.6195 -255.829 17.2684 -254.006 17.2684ZM-255.022 20.8986C-256.051 20.8986 -257.028 21.0867 -257.953 21.4629C-258.879 21.839 -259.674 22.3782 -260.339 23.0804C-261.001 23.7701 -261.462 24.5789 -261.721 25.5068C-261.981 26.4347 -261.973 27.2435 -261.697 27.9332C-261.421 28.6228 -260.928 29.162 -260.216 29.5507C-259.501 29.9269 -258.629 30.115 -257.6 30.115C-256.546 30.115 -255.556 29.9269 -254.63 29.5507C-253.701 29.162 -252.912 28.6228 -252.263 27.9332C-251.602 27.2435 -251.141 26.4347 -250.882 25.5068C-250.622 24.5789 -250.63 23.7701 -250.906 23.0804C-251.165 22.3782 -251.652 21.839 -252.367 21.4629C-253.082 21.0867 -253.967 20.8986 -255.022 20.8986ZM-244.954 48.9993H-249.251L-239.721 14.9361H-235.424L-244.954 48.9993ZM-271.24 38.4474C-268.346 38.4349 -265.72 38.4035 -263.362 38.3534C-261.005 38.3032 -258.483 38.2029 -255.798 38.0524C-253.109 37.8894 -250.547 37.6449 -248.112 37.3189L-248.632 40.3659C-251.187 40.7923 -253.804 41.1183 -256.484 41.344C-259.164 41.5697 -261.666 41.7139 -263.988 41.7766C-266.297 41.8393 -268.852 41.8706 -271.651 41.8706L-271.24 38.4474ZM-196.773 44.7484H-229.038L-228.091 41.3628H-195.825L-196.773 44.7484ZM-210.273 42.3221H-214.57L-212.092 33.463H-207.795L-210.273 42.3221ZM-204.554 19.5067C-205.217 21.8767 -206.47 24.0961 -208.312 26.1651C-210.141 28.2341 -212.368 29.9833 -214.995 31.4128C-217.621 32.8423 -220.4 33.8141 -223.33 34.3282L-224.251 30.8486C-221.72 30.4598 -219.325 29.6949 -217.066 28.5539C-214.803 27.4002 -212.91 26.0334 -211.388 24.4535C-209.848 22.861 -208.84 21.2121 -208.363 19.5067L-207.668 17.0239H-203.86L-204.554 19.5067ZM-203.773 19.5067C-204.25 21.2121 -204.158 22.861 -203.497 24.4535C-202.836 26.046 -201.695 27.4128 -200.074 28.5539C-198.453 29.6949 -196.479 30.4598 -194.153 30.8486L-197.002 34.3282C-199.667 33.8016 -201.916 32.836 -203.75 31.4316C-205.567 30.0147 -206.82 28.278 -207.507 26.2215C-208.191 24.1525 -208.197 21.9143 -207.523 19.5067L-206.829 17.0239H-203.079L-203.773 19.5067ZM-162.229 44.8425H-194.494L-193.515 41.344H-161.25L-162.229 44.8425ZM-158.52 21.4629H-185.336L-184.389 18.0772H-157.572L-158.52 21.4629ZM-162.614 35.6072H-189.157L-188.22 32.2592H-161.677L-162.614 35.6072ZM-179.003 32.6166H-183.359L-180.144 21.1243H-175.788L-179.003 32.6166ZM-166.796 32.6166H-171.074L-167.859 21.1243H-163.581L-166.796 32.6166ZM-128.805 36.0963H-153.571L-152.645 32.7859H-127.879L-128.805 36.0963ZM-127.648 44.8048H-159.913L-158.961 41.4004H-126.695L-127.648 44.8048ZM-124.897 21.0114H-144.936L-148.483 33.6887H-152.897L-148.393 17.5882H-123.94L-124.897 21.0114ZM-127.756 28.3658H-148.302L-147.382 25.0742H-126.835L-127.756 28.3658ZM-108.683 16.9487C-107.195 16.9362 -105.935 17.2057 -104.905 17.7575C-103.858 18.2967 -103.137 19.049 -102.743 20.0146C-102.336 20.9801 -102.308 22.0898 -102.659 23.3438C-103.006 24.5852 -103.654 25.6886 -104.601 26.6541C-105.532 27.6071 -106.671 28.3532 -108.02 28.8924C-109.356 29.4316 -110.766 29.7012 -112.25 29.7012C-113.748 29.7012 -115.013 29.4316 -116.047 28.8924C-117.068 28.3532 -117.784 27.6071 -118.195 26.6541C-118.602 25.6886 -118.631 24.5852 -118.284 23.3438C-117.937 22.1024 -117.296 20.9989 -116.362 20.0334C-115.424 19.0553 -114.281 18.2967 -112.932 17.7575C-111.58 17.2057 -110.163 16.9362 -108.683 16.9487ZM-109.556 20.071C-110.321 20.0584 -111.041 20.1901 -111.717 20.466C-112.38 20.7418 -112.951 21.1306 -113.43 21.6321C-113.909 22.1337 -114.238 22.7042 -114.417 23.3438C-114.599 23.9958 -114.59 24.5663 -114.388 25.0554C-114.186 25.5444 -113.831 25.9269 -113.322 26.2027C-112.797 26.4661 -112.15 26.5977 -111.382 26.5977C-110.601 26.5977 -109.88 26.4661 -109.221 26.2027C-108.545 25.9269 -107.975 25.5444 -107.513 25.0554C-107.038 24.5663 -106.709 23.9958 -106.526 23.3438C-106.347 22.7042 -106.357 22.1337 -106.555 21.6321C-106.741 21.1306 -107.094 20.7418 -107.616 20.466C-108.138 20.1901 -108.784 20.0584 -109.556 20.071ZM-95.8066 48.9052H-99.9082L-90.4046 14.9361H-86.3031L-95.8066 48.9052ZM-102.38 47.2688H-106.443L-97.5757 15.5756H-93.5132L-102.38 47.2688ZM-103.081 40.1402H-110.444L-109.544 36.9239H-102.181L-103.081 40.1402ZM-114.932 46.1967H-119.014L-115.441 33.4254H-111.359L-114.932 46.1967ZM-122.229 31.789C-118.687 31.789 -115.379 31.7388 -112.304 31.6385C-109.226 31.5257 -106.399 31.2874 -103.823 30.9238L-104.384 34.0461C-107.108 34.5226 -110.023 34.8423 -113.129 35.0053C-116.231 35.1558 -119.409 35.2311 -122.665 35.2311L-122.229 31.789ZM-73.4821 17.4189C-71.7373 17.4189 -70.3264 17.9142 -69.2493 18.9048C-68.1558 19.8829 -67.4792 21.281 -67.2197 23.0992C-66.9436 24.9049 -67.1423 27.0115 -67.8159 29.4191C-68.493 31.8392 -69.4765 33.9583 -70.7664 35.7765C-72.0398 37.5822 -73.4987 38.9803 -75.143 39.9709C-76.7743 40.9615 -78.4624 41.4568 -80.2071 41.4568C-81.965 41.4568 -83.3906 40.9678 -84.4842 39.9897C-85.5742 38.9991 -86.2555 37.5947 -86.5281 35.7765C-86.7877 33.9583 -86.5789 31.8392 -85.9018 29.4191C-85.2283 27.0115 -84.2548 24.9049 -82.9814 23.0992C-81.6915 21.281 -80.2261 19.8829 -78.5853 18.9048C-76.9409 17.9142 -75.2399 17.4189 -73.4821 17.4189ZM-74.5345 21.1807C-75.4945 21.1682 -76.4451 21.4942 -77.3863 22.1588C-78.3144 22.8234 -79.1539 23.7764 -79.9049 25.0178C-80.6523 26.2466 -81.2646 27.7137 -81.7417 29.4191C-82.2188 31.1244 -82.4309 32.6041 -82.3781 33.858C-82.3218 35.0994 -82.0137 36.0461 -81.4539 36.6982C-80.8776 37.3377 -80.1077 37.6574 -79.1442 37.6574C-78.1806 37.6574 -77.2383 37.3377 -76.3172 36.6982C-75.3796 36.0461 -74.5353 35.0994 -73.7843 33.858C-73.0299 32.6041 -72.4141 31.1244 -71.937 29.4191C-71.4564 27.7012 -71.246 26.2278 -71.3059 24.9989C-71.3622 23.7576 -71.6702 22.8108 -72.23 22.1588C-72.7732 21.4942 -73.5414 21.1682 -74.5345 21.1807ZM-62.3759 48.9993H-66.6727L-57.1429 14.9361H-52.846L-62.3759 48.9993ZM-59.7145 30.8297H-69.5387L-68.5915 27.4441H-58.7673L-59.7145 30.8297ZM-11.5962 34.5539H-43.8033L-42.8771 31.2435H-10.6701L-11.5962 34.5539ZM-25.0476 32.579H-29.2859L-27.4441 25.9958H-23.2058L-25.0476 32.579ZM-13.4707 27.9896H-38.0019L-37.0705 24.6604H-12.5393L-13.4707 27.9896ZM-11.3807 19.7512H-31.4197L-33.3931 26.8046H-37.6704L-34.7815 16.4785H-10.465L-11.3807 19.7512ZM-28.3154 36.5101C-25.7763 36.5101 -23.6555 36.7483 -21.9528 37.2248C-20.2502 37.7013 -19.0487 38.4098 -18.3482 39.3502C-17.6348 40.2907 -17.4622 41.4192 -17.8306 42.7359C-18.1989 44.0525 -18.9995 45.1685 -20.2321 46.0839C-21.4553 47.0118 -23.0514 47.714 -25.0207 48.1905C-26.9804 48.6795 -29.2398 48.9366 -31.7989 48.9616C-34.344 48.9366 -36.4726 48.6795 -38.1848 48.1905C-39.8874 47.714 -41.1037 47.0118 -41.8337 46.0839C-42.5541 45.1685 -42.7302 44.0525 -42.3618 42.7359C-41.9935 41.4192 -41.1895 40.2907 -39.9498 39.3502C-38.6971 38.4098 -37.0861 37.7013 -35.1169 37.2248C-33.1477 36.7483 -30.8805 36.5101 -28.3154 36.5101ZM-29.2152 39.7264C-30.9209 39.7264 -32.3913 39.8393 -33.6263 40.065C-34.8614 40.2907 -35.8415 40.6292 -36.5667 41.0807C-37.292 41.5321 -37.7458 42.0838 -37.9283 42.7359C-38.1107 43.3879 -37.9656 43.9396 -37.4929 44.391C-37.0167 44.8299 -36.2308 45.1622 -35.1351 45.3879C-34.0263 45.6136 -32.6126 45.7265 -30.8938 45.7265C-29.1881 45.7265 -27.7177 45.6136 -26.4827 45.3879C-25.2477 45.1622 -24.2676 44.8237 -23.5423 44.3722C-22.8171 43.9208 -22.365 43.3754 -22.1861 42.7359C-22.0036 42.0838 -22.1488 41.5321 -22.6214 41.0807C-23.0941 40.6292 -23.8913 40.2907 -25.0131 40.065C-26.1348 39.8393 -27.5355 39.7264 -29.2152 39.7264ZM5.03356 17.4189C6.80439 17.4189 8.24134 17.9142 9.34441 18.9048C10.451 19.8829 11.1471 21.281 11.4327 23.0992C11.7218 24.9049 11.5295 27.0115 10.856 29.4191C10.1789 31.8392 9.18889 33.9583 7.88594 35.7765C6.5865 37.5822 5.1016 38.9803 3.43123 39.9709C1.77388 40.9615 0.066295 41.4568 -1.69152 41.4568C-3.46235 41.4568 -4.90581 40.9615 -6.0219 39.9709C-7.13799 38.9803 -7.83407 37.5822 -8.11015 35.7765C-8.38272 33.9583 -8.18047 31.8392 -7.5034 29.4191C-6.82984 27.0115 -5.84985 24.9049 -4.56343 23.0992C-3.27351 21.281 -1.79511 19.8829 -0.128247 18.9048C1.54212 17.9142 3.26273 17.4189 5.03356 17.4189ZM3.98112 21.1807C2.99505 21.1682 2.02493 21.4942 1.07077 22.1588C0.129631 22.8234 -0.722924 23.7764 -1.4869 25.0178C-2.23434 26.2466 -2.84661 27.7137 -3.32372 29.4191C-3.80082 31.1244 -4.01296 32.6041 -3.96012 33.858C-3.89076 35.0994 -3.56318 36.0461 -2.97737 36.6982C-2.38806 37.3377 -1.60512 37.6574 -0.628555 37.6574C0.361028 37.6574 1.32288 37.3377 2.257 36.6982C3.20766 36.0461 4.05846 35.0994 4.80941 33.858C5.56387 32.6041 6.17965 31.1244 6.65675 29.4191C7.13737 27.7012 7.34775 26.2278 7.2879 24.9989C7.23156 23.7576 6.91048 22.8108 6.32468 22.1588C5.7554 21.4942 4.97421 21.1682 3.98112 21.1807ZM14.3887 48.9052H10.0528L19.5563 14.9361H23.8922L14.3887 48.9052ZM24.7002 31.5257H18.2744L19.2584 28.0084H25.6842L24.7002 31.5257ZM50.6905 48.9993H46.3741L55.904 14.9361H60.2204L50.6905 48.9993ZM29.536 37.4881C32.8268 37.5007 35.8378 37.4192 38.5692 37.2436C41.3137 37.0681 44.16 36.7609 47.1083 36.322L46.5412 39.7452C43.5989 40.2092 40.7361 40.5289 37.9526 40.7045C35.1856 40.8675 32.0573 40.949 28.5677 40.949H25.4818L26.4501 37.4881H29.536ZM44.9671 30.6417H32.8381L30.5596 38.786H26.087L29.2916 27.3313H41.4791L43.1683 21.2936H30.9417L31.8942 17.8891H48.5348L44.9671 30.6417Z" fill="white"/>
</g>
</g>
<defs>
<filter id="filter0_f_0_1" x="-1145.72" y="-385.477" width="1525.35" height="760.032" filterUnits="userSpaceOnUse" color-interpolation-filters="sRGB">
<feFlood flood-opacity="0" result="BackgroundImageFix"/>
<feBlend mode="normal" in="SourceGraphic" in2="BackgroundImageFix" result="shape"/>
<feGaussianBlur stdDeviation="50" result="effect1_foregroundBlur_0_1"/>
</filter>
<filter id="filter1_d_0_1" x="0" y="0.974304" width="130" height="128.026" filterUnits="userSpaceOnUse" color-interpolation-filters="sRGB">
<feFlood flood-opacity="0" result="BackgroundImageFix"/>
<feColorMatrix in="SourceAlpha" type="matrix" values="0 0 0 0 0 0 0 0 0 0 0 0 0 0 0 0 0 0 127 0" result="hardAlpha"/>
<feMorphology radius="5" operator="dilate" in="SourceAlpha" result="effect1_dropShadow_0_1"/>
<feOffset/>
<feGaussianBlur stdDeviation="5"/>
<feComposite in2="hardAlpha" operator="out"/>
<feColorMatrix type="matrix" values="0 0 0 0 0.368797 0 0 0 0 0.248767 0 0 0 0 0.370833 0 0 0 1 0"/>
<feBlend mode="normal" in2="BackgroundImageFix" result="effect1_dropShadow_0_1"/>
<feBlend mode="normal" in="SourceGraphic" in2="effect1_dropShadow_0_1" result="shape"/>
</filter>
<filter id="filter2_d_0_1" x="-455.638" y="14.9361" width="515.858" height="34.0631" filterUnits="userSpaceOnUse" color-interpolation-filters="sRGB">
<feFlood flood-opacity="0" result="BackgroundImageFix"/>
<feColorMatrix in="SourceAlpha" type="matrix" values="0 0 0 0 0 0 0 0 0 0 0 0 0 0 0 0 0 0 127 0" result="hardAlpha"/>
<feOffset/>
<feComposite in2="hardAlpha" operator="out"/>
<feColorMatrix type="matrix" values="0 0 0 0 1 0 0 0 0 1 0 0 0 0 1 0 0 0 0.25 0"/>
<feBlend mode="normal" in2="BackgroundImageFix" result="effect1_dropShadow_0_1"/>
<feBlend mode="normal" in="SourceGraphic" in2="effect1_dropShadow_0_1" result="shape"/>
</filter>
<linearGradient id="paint0_linear_0_1" x1="-966.091" y1="147.552" x2="238.727" y2="-213.5" gradientUnits="userSpaceOnUse">
<stop stop-color="#BF52FF"/>
<stop offset="1" stop-color="#527AFF"/>
</linearGradient>
<linearGradient id="paint1_linear_0_1" x1="26.8571" y1="93.5714" x2="105.857" y2="34.7143" gradientUnits="userSpaceOnUse">
<stop stop-color="#BF52FF"/>
<stop offset="1" stop-color="#FF63E2"/>
</linearGradient>
</defs>
</svg>
