<svg width="130" height="129" viewBox="0 0 130 129" fill="none" xmlns="http://www.w3.org/2000/svg">
<g filter="url(#filter0_d_55_15)">
<path d="M15 64C15 73.2895 17.5879 82.3953 22.4735 90.2963C27.3591 98.1973 34.3492 104.581 42.6599 108.732C50.9706 112.882 60.2733 114.635 69.5246 113.795C78.776 112.954 87.6103 109.553 95.0368 103.972C102.463 98.3918 108.188 90.8527 111.57 82.2005C114.951 73.5484 115.855 64.1252 114.181 54.9878C112.507 45.8505 108.32 37.3602 102.09 30.4692C95.8606 23.5782 87.8343 18.559 78.9116 15.9743L65 64L15 64Z" fill="url(#paint0_linear_55_15)"/>
</g>
<defs>
<filter id="filter0_d_55_15" x="0" y="0.974304" width="130" height="128.026" filterUnits="userSpaceOnUse" color-interpolation-filters="sRGB">
<feFlood flood-opacity="0" result="BackgroundImageFix"/>
<feColorMatrix in="SourceAlpha" type="matrix" values="0 0 0 0 0 0 0 0 0 0 0 0 0 0 0 0 0 0 127 0" result="hardAlpha"/>
<feMorphology radius="5" operator="dilate" in="SourceAlpha" result="effect1_dropShadow_55_15"/>
<feOffset/>
<feGaussianBlur stdDeviation="5"/>
<feComposite in2="hardAlpha" operator="out"/>
<feColorMatrix type="matrix" values="0 0 0 0 0.368797 0 0 0 0 0.248767 0 0 0 0 0.370833 0 0 0 1 0"/>
<feBlend mode="normal" in2="BackgroundImageFix" result="effect1_dropShadow_55_15"/>
<feBlend mode="normal" in="SourceGraphic" in2="effect1_dropShadow_55_15" result="shape"/>
</filter>
<linearGradient id="paint0_linear_55_15" x1="26.8571" y1="93.5714" x2="105.857" y2="34.7143" gradientUnits="userSpaceOnUse">
<stop stop-color="#BF52FF"/>
<stop offset="1" stop-color="#FF63E2"/>
</linearGradient>
</defs>
</svg>
